<svg xmlns="http://www.w3.org/2000/svg" width="500" height="500" viewBox="0 0 500 500">
<g>
<path d="M 178.91 374.91 C176.02,380.28 175.55,380.41 171.68,376.82 C168.28,373.67 166.15,369.89 165.32,365.55 C164.98,363.74 165.11,363.76 167.32,365.83 C168.78,367.20 170.33,367.81 171.36,367.42 C172.88,366.83 173.00,363.33 172.76,326.75 L 172.50 286.72 L 162.50 281.05 C157.00,277.93 149.57,273.75 146.00,271.76 C142.43,269.77 135.00,265.64 129.50,262.57 C124.00,259.51 118.94,257.00 118.25,257.00 C117.56,257.00 117.00,256.55 117.00,256.00 C117.00,255.45 116.63,255.00 116.17,255.00 C115.15,255.00 94.71,243.65 82.60,236.36 C77.70,233.41 73.16,231.00 72.51,231.00 C71.64,231.00 71.14,223.90 70.65,204.34 C70.29,189.68 70.14,177.53 70.32,177.34 C70.51,177.16 74.23,178.95 78.58,181.32 C82.94,183.69 90.55,187.81 95.50,190.48 C100.45,193.14 105.18,195.87 106.00,196.55 C106.82,197.22 114.25,201.26 122.50,205.51 C142.09,215.62 164.41,228.08 164.83,229.15 C165.02,229.62 165.59,230.00 166.12,230.00 C167.53,230.00 200.71,247.95 201.86,249.33 C202.97,250.67 203.90,310.00 202.81,310.00 C202.43,310.00 201.88,315.06 201.59,321.25 C200.48,344.61 199.95,349.19 198.42,348.61 C197.62,348.30 197.00,348.66 197.00,349.42 C197.00,350.17 197.59,351.01 198.31,351.29 C200.10,351.98 200.32,360.05 198.60,362.29 C197.30,363.97 195.11,364.26 194.00,362.88 C193.73,362.55 192.49,361.95 191.25,361.57 C189.44,361.00 189.00,361.25 189.00,362.82 C189.00,364.03 189.88,365.00 191.28,365.36 C193.16,365.83 193.56,366.59 193.53,369.71 C193.51,372.80 193.13,373.51 191.50,373.56 C190.40,373.60 188.82,373.11 188.00,372.48 C187.18,371.84 185.21,371.37 183.62,371.41 C181.42,371.48 180.32,372.30 178.91,374.91 ZM 257.50 209.69 C254.75,211.08 251.54,213.10 250.37,214.18 L 248.23 216.13 L 248.07 186.57 C247.98,170.30 248.20,157.00 248.55,157.00 C249.34,157.00 252.83,158.93 265.00,166.08 C277.39,173.37 289.95,180.00 291.37,180.00 C292.19,180.00 292.41,172.67 292.19,153.39 C291.89,127.82 291.95,126.72 293.86,125.39 C295.71,124.09 295.82,122.99 295.54,108.25 C295.30,95.74 294.88,91.75 293.49,88.86 C291.58,84.89 288.25,82.76 266.10,71.34 C255.25,65.75 252.04,64.40 248.75,64.07 C248.34,64.03 248.00,52.08 248.00,37.50 C248.00,16.38 248.26,11.00 249.30,11.00 C250.02,11.00 252.61,12.27 255.05,13.82 C257.50,15.37 264.00,19.15 269.50,22.22 C275.00,25.28 283.55,30.17 288.50,33.07 C293.45,35.97 302.67,41.14 309.00,44.55 C315.99,48.33 320.98,51.69 321.74,53.13 C322.67,54.93 322.97,69.41 322.99,113.35 L 323.00 171.20 L 319.82 174.16 C318.08,175.80 315.27,177.85 313.57,178.72 C311.88,179.59 308.92,181.54 307.00,183.05 C305.08,184.56 302.38,186.12 301.00,186.51 C297.85,187.40 280.24,196.81 279.51,197.98 C279.22,198.46 276.80,199.57 274.14,200.45 C271.49,201.34 267.78,203.21 265.91,204.61 C264.03,206.01 260.25,208.30 257.50,209.69 ZM 255.60 463.38 C246.52,468.14 244.63,468.09 242.01,463.00 C241.31,461.62 241.08,460.83 241.51,461.23 C241.94,461.63 243.02,461.13 243.90,460.12 C245.54,458.22 245.82,451.75 245.23,429.75 C245.05,422.74 244.70,421.00 243.50,421.00 C242.58,421.00 242.00,420.06 242.00,418.58 C242.00,413.10 244.58,411.41 248.10,414.59 C250.46,416.73 254.83,415.71 259.59,411.93 C261.61,410.32 264.04,409.00 264.98,409.00 C265.92,409.00 267.50,408.10 268.50,407.00 C269.50,405.90 271.08,405.00 272.02,405.00 C272.96,405.00 275.02,403.99 276.59,402.75 C278.16,401.51 282.14,399.15 285.44,397.50 C289.12,395.66 292.32,393.17 293.75,391.06 L 296.06 387.62 L 295.80 320.89 C295.54,255.58 295.58,254.13 297.52,251.98 C299.49,249.80 302.38,248.06 311.00,243.89 C313.48,242.70 316.98,240.43 318.78,238.86 C320.59,237.29 322.39,236.00 322.78,236.00 C323.30,236.00 323.48,281.00 322.99,286.00 C322.96,286.27 322.94,315.41 322.95,350.74 C322.96,403.75 323.21,415.57 324.37,418.35 C325.15,420.21 325.50,422.19 325.14,422.74 C324.46,423.82 290.96,443.73 288.16,444.72 C287.25,445.04 285.82,445.88 285.00,446.58 C284.17,447.29 279.45,449.96 274.50,452.52 C269.55,455.08 264.83,457.75 264.00,458.46 C263.17,459.17 259.39,461.38 255.60,463.38 ZM 200.12 438.19 C199.85,439.78 195.54,438.31 189.47,434.54 C185.21,431.89 183.16,430.03 183.51,429.11 C183.95,427.97 183.77,427.95 182.52,428.98 C181.66,429.70 181.00,429.81 181.00,429.23 C181.00,427.98 183.40,427.00 186.47,427.00 C189.30,427.00 190.53,424.39 188.30,423.15 C186.92,422.37 187.03,422.14 189.09,421.56 C193.61,420.29 199.00,417.70 199.00,416.79 C199.00,416.29 199.45,416.16 200.00,416.50 C200.55,416.84 201.00,416.44 201.00,415.61 C201.00,413.26 203.96,412.09 207.10,413.19 C210.30,414.30 214.00,412.81 214.00,410.41 C214.00,408.59 207.75,405.78 205.56,406.62 C204.37,407.07 204.00,406.53 204.02,404.36 C204.03,400.87 204.89,399.60 207.50,399.18 C208.60,399.00 210.70,398.62 212.17,398.33 C214.11,397.94 215.35,398.39 216.67,399.93 C217.68,401.10 218.51,402.39 218.52,402.78 C218.52,403.18 218.92,404.11 219.39,404.86 C220.11,406.00 220.39,406.00 221.11,404.86 C221.73,403.87 221.97,403.84 221.98,404.74 C221.99,405.42 221.10,406.55 220.00,407.23 C218.90,407.92 218.00,409.53 218.00,410.81 C218.00,412.27 216.20,414.88 213.13,417.88 C210.45,420.49 207.94,423.61 207.56,424.81 C206.92,426.81 205.67,427.40 202.25,427.27 L 202.15 427.26 C201.79,427.25 201.52,427.24 201.33,427.35 C200.80,427.64 200.75,428.78 200.50,433.00 C200.35,435.48 200.18,437.81 200.12,438.19 ZM 229.85 454.50 C230.02,456.43 230.01,457.96 229.83,457.91 C228.15,457.43 207.44,444.83 207.22,444.15 C206.93,443.28 207.99,443.33 215.00,444.52 C222.45,445.77 224.99,445.79 228.96,444.62 C231.22,443.95 232.72,443.04 232.29,442.59 C231.85,442.15 232.36,441.94 233.41,442.14 C235.35,442.51 236.30,444.98 235.14,446.67 C234.79,447.19 233.39,448.38 232.03,449.31 C230.05,450.66 229.61,451.71 229.85,454.50 ZM 160.00 413.64 C160.00,414.32 159.60,415.13 159.11,415.43 C158.06,416.08 143.46,405.11 141.34,402.08 C140.03,400.21 140.07,399.98 141.69,399.84 C143.53,399.68 145.61,399.85 147.61,400.32 C149.30,400.71 160.00,412.22 160.00,413.64 ZM 181.54 336.07 C182.30,337.29 187.00,337.28 187.00,336.06 C187.00,335.54 186.55,334.84 185.99,334.49 C184.58,333.62 180.85,334.94 181.54,336.07 Z" fill="rgb(22,52,87)"/>
<path d="M 241.78 404.75 C239.55,407.47 234.12,405.08 226.96,398.19 C224.51,395.84 221.38,393.68 220.00,393.39 C215.60,392.46 213.61,391.33 208.65,386.95 L 203.80 382.66 L 204.49 376.20 C204.88,372.65 205.17,362.81 205.15,354.33 C205.12,345.85 205.49,333.08 205.97,325.96 C206.57,316.89 206.49,312.11 205.71,310.04 C204.17,305.97 205.10,305.52 209.63,308.13 C211.76,309.36 218.68,313.26 225.00,316.81 C231.32,320.36 237.39,323.88 238.47,324.63 C239.56,325.39 241.28,326.00 242.30,326.00 C243.88,326.00 244.05,326.49 243.44,329.25 C243.05,331.04 242.74,348.48 242.77,368.00 C242.79,390.84 242.44,403.95 241.78,404.75 ZM 122.04 141.04 C120.13,142.67 117.66,143.99 116.54,143.97 C113.79,143.92 104.66,140.72 102.23,138.94 C94.65,133.40 85.00,127.17 82.32,126.09 C79.02,124.77 77.71,122.99 78.84,121.38 C79.45,120.52 91.69,113.00 92.49,113.00 C92.69,113.00 96.60,110.83 101.19,108.18 C105.79,105.53 111.09,102.82 112.98,102.16 C114.87,101.50 117.33,100.11 118.46,99.07 C119.58,98.03 122.53,96.17 125.00,94.93 C127.47,93.69 130.89,91.66 132.58,90.42 C134.28,89.17 137.31,87.85 139.32,87.47 C142.67,86.84 143.06,87.01 144.10,89.64 C145.44,93.04 144.59,126.02 143.09,128.83 C142.28,130.35 128.44,137.92 126.25,138.04 C125.84,138.06 123.94,139.41 122.04,141.04 ZM 203.29 298.19 C203.45,302.42 203.64,305.00 203.86,305.00 C204.34,305.00 204.51,306.12 204.24,307.50 C203.98,308.88 203.40,310.00 202.94,310.00 C202.49,310.00 201.88,315.06 201.59,321.25 C201.88,315.06 202.43,310.00 202.81,310.00 C203.12,310.00 203.27,305.15 203.29,298.19 ZM 202.01 249.88 C202.80,251.76 202.97,256.39 203.00,271.59 C202.76,261.21 202.40,252.19 202.01,249.88 ZM 166.12 230.00 C165.60,230.00 165.02,229.62 164.83,229.15 C165.02,229.62 165.60,230.00 166.14,230.00 C167.45,230.00 199.04,246.93 201.25,248.82 C201.31,248.87 201.37,248.93 201.43,248.99 C197.37,246.14 167.45,230.00 166.12,230.00 Z" fill="rgb(33,159,193)"/>
<path d="M 178.91 374.91 C180.32,372.30 181.42,371.48 183.62,371.41 C185.21,371.37 187.18,371.84 188.00,372.48 C188.82,373.11 190.40,373.60 191.50,373.56 C193.13,373.51 193.51,372.80 193.53,369.71 C193.56,366.59 193.16,365.83 191.28,365.36 C189.88,365.00 189.00,364.03 189.00,362.82 C189.00,361.25 189.44,361.00 191.25,361.57 C192.49,361.95 193.73,362.55 194.00,362.88 C195.11,364.26 197.30,363.97 198.60,362.29 C200.32,360.05 200.10,351.98 198.31,351.29 C197.59,351.01 197.00,350.17 197.00,349.42 C197.00,348.66 197.62,348.30 198.42,348.61 C199.95,349.19 200.48,344.61 201.59,321.25 C201.88,315.06 202.49,310.00 202.94,310.00 C203.30,310.00 203.74,309.30 204.04,308.33 C204.25,314.02 204.33,326.41 204.22,340.69 C204.07,360.32 204.21,376.12 204.53,375.80 C204.53,375.80 204.53,375.80 204.54,375.80 C204.52,375.94 204.51,376.08 204.49,376.20 L 203.80 382.66 L 204.00 382.83 L 204.00 385.85 C204.00,388.63 204.76,389.30 213.75,394.29 C234.98,406.09 245.60,412.33 247.67,414.22 C247.68,414.23 247.69,414.24 247.70,414.24 C244.39,411.55 242.00,413.31 242.00,418.58 C242.00,420.06 242.58,421.00 243.50,421.00 C244.70,421.00 245.05,422.74 245.23,429.75 C245.82,451.75 245.54,458.22 243.90,460.12 C243.02,461.13 241.94,461.63 241.51,461.23 C241.08,460.83 241.31,461.62 242.01,463.00 C242.69,464.31 243.31,465.28 244.02,465.93 C243.21,465.55 242.33,465.08 241.50,464.58 C239.91,463.63 235.57,461.10 229.90,457.82 C230.01,457.48 229.99,456.13 229.85,454.50 C229.61,451.71 230.05,450.66 232.03,449.31 C233.39,448.38 234.79,447.19 235.14,446.67 C236.30,444.98 235.35,442.51 233.41,442.14 C232.36,441.94 231.85,442.15 232.29,442.59 C232.72,443.04 231.22,443.95 228.96,444.62 C224.99,445.79 222.45,445.77 215.00,444.52 C207.99,443.33 206.93,443.28 207.22,444.15 C207.30,444.40 210.14,446.25 213.78,448.52 C206.45,444.30 198.93,439.98 192.93,436.55 C197.12,438.78 199.90,439.46 200.12,438.19 C200.18,437.81 200.35,435.48 200.50,433.00 C200.75,428.78 200.80,427.64 201.33,427.35 C201.52,427.24 201.79,427.25 202.15,427.26 L 202.25 427.27 C205.67,427.40 206.92,426.81 207.56,424.81 C207.94,423.61 210.45,420.49 213.13,417.88 C216.20,414.88 218.00,412.27 218.00,410.81 C218.00,409.53 218.90,407.92 220.00,407.23 C221.10,406.55 221.99,405.42 221.98,404.74 C221.97,403.84 221.73,403.87 221.11,404.86 C220.39,406.00 220.11,406.00 219.39,404.86 C218.92,404.11 218.52,403.18 218.52,402.78 C218.51,402.39 217.68,401.10 216.67,399.93 C215.35,398.39 214.11,397.94 212.17,398.33 C210.70,398.62 208.60,399.00 207.50,399.18 C204.89,399.60 204.03,400.87 204.02,404.36 C204.00,406.53 204.37,407.07 205.56,406.62 C207.75,405.78 214.00,408.59 214.00,410.41 C214.00,412.81 210.30,414.30 207.10,413.19 C203.96,412.09 201.00,413.26 201.00,415.61 C201.00,416.44 200.55,416.84 200.00,416.50 C199.45,416.16 199.00,416.29 199.00,416.79 C199.00,417.70 193.61,420.29 189.09,421.56 C187.03,422.14 186.92,422.37 188.30,423.15 C190.53,424.39 189.30,427.00 186.47,427.00 C183.40,427.00 181.00,427.98 181.00,429.23 C181.00,429.81 181.66,429.70 182.52,428.98 C183.77,427.95 183.95,427.97 183.51,429.11 C183.16,430.03 185.21,431.89 189.47,434.54 C189.68,434.67 189.90,434.80 190.11,434.93 C185.78,432.46 182.57,430.63 181.32,429.95 C141.70,408.16 115.14,381.78 94.14,343.33 C80.80,318.92 72.87,291.50 71.34,264.50 C71.00,258.45 71.09,253.84 71.54,254.26 C71.99,254.68 72.50,257.38 72.67,260.26 C73.13,267.99 74.64,271.00 78.05,271.00 C79.93,271.00 81.06,270.37 81.47,269.11 C82.30,266.49 87.27,264.62 91.24,265.44 C98.96,267.03 102.09,267.17 103.52,265.98 C106.89,263.19 104.13,252.40 99.24,249.29 C97.74,248.33 96.14,246.97 95.69,246.26 C95.25,245.56 93.45,244.31 91.69,243.50 C89.94,242.68 85.59,240.16 82.03,237.88 C78.47,235.61 74.53,233.75 73.28,233.75 C71.02,233.75 71.00,233.61 70.93,220.12 C70.92,217.92 70.89,214.93 70.85,211.48 C71.28,225.66 71.75,231.00 72.51,231.00 C73.16,231.00 77.70,233.41 82.60,236.36 C94.71,243.65 115.15,255.00 116.17,255.00 C116.63,255.00 117.00,255.45 117.00,256.00 C117.00,256.55 117.56,257.00 118.25,257.00 C118.48,257.00 119.22,257.29 120.31,257.79 C116.20,256.12 116.06,257.75 116.54,262.75 C117.48,272.50 120.16,287.33 121.62,290.87 C122.38,292.73 123.00,294.86 123.00,295.62 C123.00,298.36 133.76,322.00 138.05,328.67 C145.63,340.47 154.13,351.23 162.23,359.25 C166.54,363.51 170.73,367.00 171.54,367.00 C172.83,367.00 172.99,361.78 172.76,326.86 L 172.50 286.72 L 172.76 326.75 C173.00,363.33 172.88,366.83 171.36,367.42 C170.33,367.81 168.78,367.20 167.32,365.83 C165.11,363.76 164.98,363.74 165.32,365.55 C166.15,369.89 168.28,373.67 171.68,376.82 C175.55,380.41 176.02,380.28 178.91,374.91 ZM 307.02 434.02 C315.97,428.70 324.79,423.29 325.14,422.74 C325.50,422.19 325.15,420.21 324.37,418.35 C323.26,415.69 322.98,404.75 322.95,357.40 C323.03,365.62 323.25,366.85 323.78,367.00 C323.87,367.02 323.97,367.02 324.08,367.01 C324.14,367.00 324.20,367.00 324.27,367.00 C326.22,367.00 344.01,348.46 350.65,339.50 C358.40,329.05 364.58,318.44 368.51,308.84 C370.25,304.58 372.31,300.32 373.09,299.38 C374.35,297.85 374.55,298.18 375.00,302.58 C375.46,307.13 375.71,307.50 378.22,307.55 C381.28,307.60 386.00,311.50 386.00,313.98 C386.00,316.01 393.98,320.00 398.06,320.00 C399.71,320.00 402.66,320.67 404.62,321.48 C407.76,322.80 408.10,323.28 407.56,325.73 C407.23,327.26 406.75,330.21 406.48,332.30 C406.01,336.03 400.95,346.17 394.14,357.00 C384.93,371.68 366.29,393.27 354.13,403.36 C347.30,409.02 325.84,424.00 324.56,424.00 C324.28,424.00 316.39,428.50 307.02,434.02 ZM 248.49 157.12 L 248.50 155.58 L 252.00 154.83 C255.72,154.03 262.91,155.86 266.38,158.49 C267.42,159.27 268.40,161.15 268.57,162.65 C268.90,165.74 271.62,168.14 277.50,170.55 C279.70,171.45 283.39,173.14 285.71,174.30 C288.02,175.46 290.24,176.10 290.62,175.71 C291.01,175.33 290.74,173.25 290.03,171.09 C289.32,168.94 289.04,165.98 289.40,164.52 C289.77,163.06 289.76,158.46 289.39,154.30 C288.76,147.36 288.47,146.60 285.86,145.12 C282.31,143.10 282.29,142.45 285.75,140.80 C287.53,139.95 288.61,138.56 288.80,136.88 C289.05,134.74 288.46,133.97 285.49,132.56 C283.50,131.62 279.79,128.85 277.23,126.40 C272.74,122.10 262.19,116.00 259.23,116.00 C258.44,116.00 256.37,117.19 254.64,118.65 C251.84,121.01 251.46,121.10 251.15,119.50 C250.90,118.25 250.57,118.08 250.05,118.92 C249.64,119.58 249.01,116.65 248.65,112.40 C248.29,108.15 248.22,104.45 248.49,104.17 C249.42,103.25 259.48,109.30 264.11,113.56 C268.93,118.01 275.76,122.00 278.56,122.00 C279.47,122.00 282.41,123.24 285.10,124.75 C289.72,127.34 290.16,127.41 292.75,125.96 L 294.13 125.19 C294.04,125.26 293.95,125.32 293.86,125.39 C291.95,126.72 291.89,127.82 292.19,153.39 C292.41,172.67 292.19,180.00 291.37,180.00 C289.95,180.00 277.39,173.37 265.00,166.08 C252.83,158.93 249.34,157.00 248.55,157.00 C248.53,157.00 248.51,157.04 248.49,157.12 ZM 70.30 177.49 C70.14,165.71 70.35,160.00 70.96,160.00 C71.54,160.00 72.00,162.23 72.00,165.05 C72.00,167.83 72.69,171.43 73.53,173.05 C74.78,175.48 75.68,176.00 78.62,176.00 C82.46,176.00 88.00,178.70 88.00,180.58 C88.00,183.07 92.62,187.38 97.68,189.62 C100.60,190.92 103.00,192.42 103.00,192.97 C103.00,193.51 104.09,194.24 105.43,194.57 C106.76,194.91 108.63,196.04 109.58,197.09 C110.53,198.14 111.85,199.00 112.50,199.00 C113.16,199.00 115.49,200.30 117.69,201.89 C119.88,203.48 127.26,207.80 134.09,211.50 C149.66,219.94 159.54,225.51 163.22,227.93 C157.71,224.36 139.12,214.09 122.50,205.51 C114.25,201.26 106.82,197.22 106.00,196.55 C105.18,195.87 100.45,193.14 95.50,190.48 C90.55,187.81 82.94,183.69 78.58,181.32 C74.23,178.95 70.51,177.16 70.32,177.34 C70.31,177.35 70.30,177.40 70.30,177.49 ZM 160.00 413.64 C160.00,412.22 149.30,400.71 147.61,400.32 C145.61,399.85 143.53,399.68 141.69,399.84 C140.07,399.98 140.03,400.21 141.34,402.08 C143.46,405.11 158.06,416.08 159.11,415.43 C159.60,415.13 160.00,414.32 160.00,413.64 ZM 322.95 309.99 C322.96,295.51 322.97,286.16 322.99,286.00 C323.47,281.06 323.30,237.13 322.80,236.02 C322.85,236.01 322.90,236.00 322.93,236.00 C323.41,236.00 323.85,242.19 323.91,249.75 C324.05,266.13 324.95,277.85 326.14,278.59 C327.45,279.40 327.19,280.49 324.99,283.29 C323.29,285.44 323.02,286.93 322.95,309.99 ZM 181.54 336.07 C180.85,334.94 184.58,333.62 185.99,334.49 C186.55,334.84 187.00,335.54 187.00,336.06 C187.00,337.28 182.30,337.29 181.54,336.07 ZM 373.62 316.25 C373.07,318.53 373.29,319.00 374.89,319.00 C376.62,319.00 376.71,318.68 375.71,316.04 C375.09,314.41 374.52,313.17 374.44,313.29 C374.35,313.40 373.98,314.74 373.62,316.25 ZM 409.71 318.38 C410.05,318.72 410.06,319.00 409.73,319.00 C407.79,319.00 408.74,313.90 410.93,312.54 C412.53,311.55 412.22,314.64 410.55,316.31 C409.75,317.11 409.37,318.04 409.71,318.38 ZM 417.09 295.69 C417.70,296.30 418.03,297.55 417.84,298.48 C417.40,300.68 416.00,299.28 416.00,296.63 C416.00,295.16 416.30,294.90 417.09,295.69 ZM 295.49 121.93 L 295.43 108.76 C295.37,97.39 295.11,91.86 293.16,88.23 C293.28,88.44 293.39,88.65 293.49,88.86 C294.88,91.75 295.30,95.74 295.54,108.25 C295.68,115.70 295.72,119.67 295.49,121.93 ZM 84.87 179.25 C86.18,180.92 87.00,181.45 87.00,180.62 C87.00,180.41 86.21,179.63 85.25,178.87 C83.66,177.63 83.63,177.66 84.87,179.25 ZM 283.69 80.68 C279.52,78.38 272.12,74.45 266.10,71.34 C274.19,75.51 279.77,78.45 283.69,80.68 ZM 246.47 466.89 C247.35,466.89 248.39,466.65 249.68,466.17 C248.43,466.69 247.48,466.99 247.10,466.99 C246.94,466.99 246.73,466.95 246.47,466.89 ZM 251.96 415.65 C250.40,415.82 249.08,415.48 248.10,414.59 C248.06,414.56 248.02,414.52 247.98,414.49 C249.12,415.39 250.45,415.78 251.96,415.65 ZM 205.11 360.81 C205.12,359.53 205.12,358.21 205.12,356.86 C205.13,355.55 205.13,354.18 205.15,352.77 C205.15,353.30 205.15,353.82 205.15,354.33 C205.15,356.45 205.14,358.64 205.11,360.81 ZM 248.23 216.13 L 250.37 214.18 C250.36,214.18 250.36,214.19 250.35,214.19 L 248.20 216.16 L 248.22 213.20 Z" fill="rgb(32,75,109)"/>
<path d="M 251.96 415.65 C250.45,415.78 249.12,415.39 247.98,414.49 C247.89,414.40 247.79,414.32 247.70,414.24 C247.69,414.24 247.68,414.23 247.67,414.22 C246.70,413.34 243.88,411.51 238.99,408.62 L 248.17 413.91 L 270.08 401.36 L 292.00 388.82 L 292.00 250.18 L 295.08 247.59 C296.77,246.17 298.99,245.00 300.02,245.00 C301.04,245.00 302.13,244.60 302.43,244.11 C303.21,242.86 320.71,234.00 322.41,234.00 C323.56,234.00 323.84,236.77 323.92,248.75 C323.97,256.17 324.16,262.61 324.46,267.59 C324.17,262.80 323.97,256.69 323.91,249.75 C323.85,242.19 323.41,236.00 322.93,236.00 C322.90,236.00 322.85,236.01 322.80,236.02 C322.80,236.01 322.79,236.00 322.78,236.00 C322.39,236.00 320.59,237.29 318.78,238.86 C316.98,240.43 313.48,242.70 311.00,243.89 C302.38,248.06 299.49,249.80 297.52,251.98 C295.58,254.13 295.54,255.58 295.80,320.89 L 296.06 387.62 L 293.75 391.06 C292.32,393.17 289.12,395.66 285.44,397.50 C282.14,399.15 278.16,401.51 276.59,402.75 C275.02,403.99 272.96,405.00 272.02,405.00 C271.08,405.00 269.50,405.90 268.50,407.00 C267.50,408.10 265.92,409.00 264.98,409.00 C264.04,409.00 261.61,410.32 259.59,411.93 C256.80,414.14 254.15,415.41 251.96,415.65 ZM 257.50 209.69 C260.25,208.30 264.03,206.01 265.91,204.61 C267.78,203.21 271.49,201.34 274.14,200.45 C276.80,199.57 279.22,198.46 279.51,197.98 C280.24,196.81 297.85,187.40 301.00,186.51 C302.38,186.12 305.08,184.56 307.00,183.05 C308.92,181.54 311.88,179.59 313.57,178.72 C315.27,177.85 318.08,175.80 319.82,174.16 L 322.64 171.54 C322.39,177.42 321.96,178.57 321.25,179.18 C320.29,180.00 315.90,182.61 311.50,184.97 C297.33,192.57 261.68,212.16 255.68,215.63 C252.48,217.48 249.48,219.00 249.02,219.00 C248.89,219.00 248.77,217.82 248.67,215.73 L 250.35 214.19 C250.36,214.19 250.36,214.18 250.37,214.18 C251.54,213.10 254.75,211.08 257.50,209.69 ZM 295.49 121.93 C295.28,123.92 294.87,124.61 294.13,125.19 L 292.75 125.96 C291.79,126.50 291.12,126.83 290.43,126.90 C292.00,125.99 292.00,121.24 291.99,109.25 L 291.99 108.25 L 291.97 89.50 L 271.22 77.78 C259.80,71.34 249.91,65.51 249.23,64.83 C249.13,64.73 249.04,64.48 248.95,64.09 C252.17,64.46 255.47,65.86 266.10,71.34 C272.12,74.45 279.52,78.38 283.69,80.68 C289.91,84.23 291.93,86.02 293.16,88.23 C295.11,91.86 295.37,97.39 295.43,108.76 ZM 248.06 24.61 C248.02,28.05 248.00,32.30 248.00,37.50 C248.00,44.40 248.08,50.72 248.20,55.46 C247.83,46.93 247.79,34.24 248.06,24.61 ZM 283.61 123.95 C281.50,122.88 279.49,122.07 278.67,122.00 C278.68,122.00 278.70,122.01 278.71,122.01 C279.56,122.01 281.64,122.85 283.61,123.95 ZM 278.53 122.00 C277.07,121.98 274.57,120.92 271.84,119.30 C274.52,120.88 276.98,121.92 278.53,122.00 ZM 218.24 396.79 C216.80,395.99 215.30,395.16 213.75,394.29 C208.59,391.42 206.14,389.98 204.99,388.75 C206.14,389.98 208.59,391.42 213.75,394.28 C215.02,394.99 216.56,395.85 218.24,396.79 ZM 243.30 330.68 C243.34,329.97 243.39,329.48 243.44,329.25 C243.51,328.93 243.57,328.64 243.62,328.38 C243.57,328.75 243.50,329.17 243.41,329.65 C243.37,329.85 243.33,330.20 243.30,330.68 ZM 248.50 155.58 L 252.00 154.83 L 248.50 155.58 L 248.50 155.58 Z" fill="rgb(44,55,57)"/>
<path d="M 248.49 157.12 C248.17,158.49 247.99,171.21 248.07,186.57 L 248.22 213.20 L 248.20 216.16 L 248.67 215.73 C248.74,217.32 248.83,218.38 248.93,218.80 C248.60,218.89 248.35,218.93 248.18,218.92 C247.26,218.88 237.50,213.87 226.50,207.78 C215.50,201.69 199.07,192.60 190.00,187.59 L 173.50 178.47 L 173.18 146.98 C173.01,129.67 173.17,102.35 173.55,86.27 C174.22,57.36 174.25,57.02 176.60,54.49 C177.90,53.09 179.44,51.05 180.02,49.97 C180.98,48.17 183.89,46.32 194.00,41.04 C201.55,37.10 210.56,33.00 211.66,33.00 C212.30,33.00 213.93,31.68 215.29,30.07 C216.82,28.25 219.17,26.87 221.46,26.44 C224.92,25.79 229.00,22.72 229.00,20.75 C229.00,20.27 229.38,20.12 229.85,20.41 C230.31,20.69 233.35,19.61 236.60,18.00 C239.84,16.38 243.74,15.05 245.25,15.03 C247.32,15.01 248.00,14.51 248.00,13.00 C248.00,11.87 248.31,11.25 249.04,11.14 C248.44,11.84 248.16,15.32 248.06,24.61 L 248.06 24.61 C247.79,34.25 247.84,46.93 248.20,55.46 C248.34,60.73 248.53,64.05 248.75,64.07 C248.82,64.08 248.88,64.09 248.95,64.09 C248.99,64.30 249.04,64.46 249.09,64.59 C249.05,64.55 249.01,64.51 248.99,64.49 C247.10,62.21 242.20,63.80 233.50,69.53 C229.10,72.42 224.50,75.09 223.28,75.46 C222.05,75.82 220.25,77.11 219.28,78.31 C216.77,81.42 212.47,84.00 209.79,84.01 C208.53,84.02 206.45,84.59 205.17,85.26 C202.88,86.48 202.84,86.76 202.94,101.50 C202.99,109.75 203.31,130.80 203.63,148.28 C204.21,179.12 204.28,180.04 206.16,179.45 C207.23,179.11 212.91,176.10 218.80,172.76 C224.68,169.41 233.55,164.38 238.50,161.57 L 247.50 156.46 L 247.77 130.23 C247.86,121.05 248.10,112.93 248.38,108.24 C248.43,109.48 248.52,110.90 248.65,112.40 C249.01,116.65 249.64,119.58 250.05,118.92 C250.57,118.08 250.90,118.25 251.15,119.50 C251.46,121.10 251.84,121.01 254.64,118.65 C256.37,117.19 258.44,116.00 259.23,116.00 C262.19,116.00 272.74,122.10 277.23,126.40 C279.79,128.85 283.50,131.62 285.49,132.56 C288.46,133.97 289.05,134.74 288.80,136.88 C288.61,138.56 287.53,139.95 285.75,140.80 C282.29,142.45 282.31,143.10 285.86,145.12 C288.47,146.60 288.76,147.36 289.39,154.30 C289.76,158.46 289.77,163.06 289.40,164.52 C289.04,165.98 289.32,168.94 290.03,171.09 C290.74,173.25 291.01,175.33 290.62,175.71 C290.24,176.10 288.02,175.46 285.71,174.30 C283.39,173.14 279.70,171.45 277.50,170.55 C271.62,168.14 268.90,165.74 268.57,162.65 C268.40,161.15 267.42,159.27 266.38,158.49 C262.91,155.86 255.72,154.03 252.00,154.83 L 248.50 155.58 L 248.50 155.58 ZM 409.71 318.38 C409.37,318.04 409.75,317.11 410.55,316.31 C410.78,316.07 410.99,315.81 411.18,315.53 C409.45,320.25 407.24,327.67 406.64,331.11 C406.91,329.20 407.29,326.98 407.56,325.73 C408.10,323.28 407.76,322.80 404.62,321.48 C402.66,320.67 399.71,320.00 398.06,320.00 C393.98,320.00 386.00,316.01 386.00,313.98 C386.00,311.50 381.28,307.60 378.22,307.55 C375.71,307.50 375.46,307.13 375.00,302.58 C374.64,299.02 374.44,298.12 373.71,298.72 C373.72,298.71 373.73,298.70 373.73,298.69 C376.90,295.16 377.29,294.06 378.10,286.08 C378.52,281.91 379.31,274.60 379.86,269.84 C381.12,258.88 380.70,257.22 376.45,256.42 C373.85,255.94 371.63,256.55 366.31,259.21 C358.19,263.28 350.96,267.39 345.50,271.06 C343.30,272.53 338.35,274.99 334.50,276.52 C330.65,278.05 327.36,279.66 327.18,280.10 C327.04,280.45 326.36,281.47 325.55,282.55 C327.22,280.29 327.33,279.32 326.14,278.59 C325.46,278.16 324.87,274.10 324.46,267.59 L 324.46 267.58 C324.16,262.60 323.97,256.16 323.92,248.75 C323.84,236.79 323.56,234.01 322.42,234.00 C323.20,234.00 324.01,234.54 324.23,235.20 C324.51,236.02 325.57,235.73 327.61,234.28 C329.25,233.11 333.04,231.00 336.04,229.59 C342.77,226.43 349.41,222.65 358.81,216.62 C362.78,214.08 366.47,212.00 367.02,212.00 C368.21,212.00 386.85,202.25 389.00,200.50 C389.83,199.83 392.01,198.78 393.86,198.15 C395.71,197.53 399.43,195.44 402.12,193.51 C404.80,191.58 407.38,190.00 407.83,190.00 C408.29,190.00 410.75,188.62 413.30,186.93 C415.97,185.16 418.91,183.99 420.22,184.18 C420.75,184.25 421.16,184.24 421.49,184.40 C422.78,185.03 422.76,188.33 423.31,210.00 C423.56,219.62 424.11,234.81 424.53,243.75 C425.11,255.80 425.01,260.00 424.15,260.00 C423.52,260.00 423.00,261.24 423.00,262.75 C423.00,264.26 422.36,269.33 421.57,274.00 C420.79,278.67 419.61,286.44 418.97,291.25 C418.63,293.77 418.23,295.99 417.87,297.50 C417.78,296.80 417.50,296.10 417.09,295.69 C416.30,294.90 416.00,295.16 416.00,296.63 C416.00,298.16 416.47,299.27 416.94,299.52 C416.50,299.65 415.65,301.88 414.98,304.78 C414.26,307.93 413.34,310.95 412.93,311.50 C412.69,311.84 412.35,312.54 411.96,313.49 C412.07,312.60 411.75,312.04 410.93,312.54 C408.74,313.90 407.79,319.00 409.73,319.00 C410.06,319.00 410.05,318.72 409.71,318.38 ZM 119.94 203.37 C118.96,202.76 118.19,202.25 117.69,201.89 C115.49,200.30 113.16,199.00 112.50,199.00 C111.85,199.00 110.53,198.14 109.58,197.09 C108.63,196.04 106.76,194.91 105.43,194.57 C104.09,194.24 103.00,193.51 103.00,192.97 C103.00,192.42 100.60,190.92 97.68,189.62 C92.62,187.38 88.00,183.07 88.00,180.58 C88.00,178.70 82.46,176.00 78.62,176.00 C75.68,176.00 74.78,175.48 73.53,173.05 C72.69,171.43 72.00,167.83 72.00,165.05 C72.00,162.23 71.54,160.00 70.96,160.00 C70.74,160.00 70.57,160.76 70.45,162.28 C70.43,143.20 70.51,128.69 70.73,126.74 C71.11,123.42 71.61,122.26 72.39,122.91 C74.11,124.33 107.98,143.36 112.68,145.55 C115.40,146.82 117.09,148.35 117.50,149.93 C117.85,151.27 118.09,163.45 118.03,177.00 C117.95,199.44 118.10,201.77 119.72,203.19 C119.78,203.24 119.85,203.30 119.94,203.37 ZM 71.16 256.25 C70.94,243.59 70.74,223.42 70.61,202.71 C70.63,203.25 70.64,203.79 70.65,204.34 C70.72,206.94 70.78,209.31 70.85,211.48 C70.89,214.93 70.92,217.92 70.93,220.12 C71.00,233.61 71.02,233.75 73.28,233.75 C74.53,233.75 78.47,235.61 82.03,237.88 C85.59,240.16 89.94,242.68 91.69,243.50 C93.45,244.31 95.25,245.56 95.69,246.26 C96.14,246.97 97.74,248.33 99.24,249.29 C104.13,252.40 106.89,263.19 103.52,265.98 C102.09,267.17 98.96,267.03 91.24,265.44 C87.27,264.62 82.30,266.49 81.47,269.11 C81.06,270.37 79.93,271.00 78.05,271.00 C74.64,271.00 73.13,267.99 72.67,260.26 C72.50,257.38 71.99,254.68 71.54,254.26 C71.34,254.08 71.22,254.84 71.16,256.25 ZM 373.62 316.25 C373.98,314.74 374.35,313.40 374.44,313.29 C374.52,313.17 375.09,314.41 375.71,316.04 C376.71,318.68 376.62,319.00 374.89,319.00 C373.29,319.00 373.07,318.53 373.62,316.25 ZM 395.82 354.28 C400.98,345.79 404.89,338.05 406.11,333.92 C404.81,338.90 401.03,346.16 395.82,354.28 ZM 84.87 179.25 C83.63,177.66 83.66,177.63 85.25,178.87 C86.21,179.63 87.00,180.41 87.00,180.62 C87.00,181.45 86.18,180.92 84.87,179.25 ZM 71.34 264.48 L 71.34 264.50 C71.82,272.89 72.91,281.32 74.60,289.69 C73.18,282.80 72.15,275.88 71.54,269.00 C71.47,268.27 71.41,266.72 71.34,264.48 ZM 373.17 384.28 C366.71,391.68 360.10,398.40 354.13,403.36 C359.64,398.79 366.48,391.86 373.17,384.28 ZM 248.82 104.08 C248.85,104.03 248.87,104.00 248.89,104.00 C250.35,104.00 255.64,107.09 260.03,110.30 C255.63,107.12 250.30,104.09 248.82,104.08 ZM 323.18 364.97 C323.39,366.35 323.74,367.00 324.27,367.00 C324.20,367.00 324.14,367.00 324.08,367.01 C323.97,367.02 323.87,367.02 323.78,367.00 C323.50,366.92 323.31,366.54 323.18,364.97 ZM 322.95 309.99 C323.00,292.67 323.17,287.52 323.97,285.11 C323.18,287.53 323.01,292.78 322.95,310.30 C322.95,310.20 322.95,310.09 322.95,309.99 ZM 250.78 11.48 C251.84,11.89 253.24,12.67 255.05,13.82 C253.52,12.85 251.93,11.98 250.78,11.48 ZM 161.39 226.78 C160.09,225.99 158.43,225.01 156.41,223.85 C158.42,225.00 160.08,225.98 161.39,226.78 Z" fill="rgb(38,104,135)"/>
<path d="M 118.72 201.52 C118.03,199.14 117.97,193.51 118.03,177.00 C118.09,163.45 117.85,151.27 117.50,149.93 C117.09,148.35 115.40,146.82 112.68,145.55 C107.98,143.36 74.11,124.33 72.39,122.91 C71.97,122.55 71.62,122.74 71.34,123.52 C71.68,121.95 72.17,121.47 72.94,120.85 C75.01,119.17 99.26,105.88 136.50,86.01 C139.80,84.25 142.93,82.40 143.45,81.91 C143.97,81.41 145.21,81.00 146.20,81.00 C147.89,81.00 148.00,82.59 148.00,105.93 L 148.00 130.86 L 145.10 132.93 C143.50,134.07 141.95,135.00 141.66,135.00 C141.36,135.00 136.26,137.71 130.31,141.01 C121.17,146.09 119.44,147.45 119.11,149.76 C118.89,151.27 118.54,163.46 118.32,176.86 C118.09,191.50 118.19,198.83 118.72,201.52 ZM 122.04 141.04 C123.94,139.41 125.84,138.06 126.25,138.04 C128.44,137.92 142.28,130.35 143.09,128.83 C144.59,126.02 145.44,93.04 144.10,89.64 C143.06,87.01 142.67,86.84 139.32,87.47 C137.31,87.85 134.28,89.17 132.58,90.42 C130.89,91.66 127.47,93.69 125.00,94.93 C122.53,96.17 119.58,98.03 118.46,99.07 C117.33,100.11 114.87,101.50 112.98,102.16 C111.09,102.82 105.79,105.53 101.19,108.18 C96.60,110.83 92.69,113.00 92.49,113.00 C91.69,113.00 79.45,120.52 78.84,121.38 C77.71,122.99 79.02,124.77 82.32,126.09 C85.00,127.17 94.65,133.40 102.23,138.94 C104.66,140.72 113.79,143.92 116.54,143.97 C117.66,143.99 120.13,142.67 122.04,141.04 ZM 241.78 404.75 C242.44,403.95 242.79,390.84 242.77,368.00 C242.75,350.98 242.98,335.55 243.30,330.68 C243.33,330.20 243.37,329.85 243.41,329.65 C243.50,329.17 243.57,328.75 243.62,328.38 C243.99,326.39 243.70,326.00 242.30,326.00 C241.28,326.00 239.56,325.39 238.47,324.63 C238.05,324.34 236.86,323.62 235.19,322.64 C240.60,325.53 242.30,325.98 243.70,325.72 L 246.14 325.25 L 245.91 368.67 C245.77,396.72 246.02,411.70 246.67,413.04 L 238.99 408.62 C234.16,405.76 227.31,401.86 218.24,396.79 L 218.24 396.79 C216.55,395.84 215.02,394.99 213.75,394.28 C208.59,391.42 206.14,389.98 204.99,388.75 C204.14,387.84 204.00,387.04 204.00,385.85 L 204.00 382.83 L 208.65 386.95 C213.61,391.33 215.60,392.46 220.00,393.39 C221.38,393.68 224.51,395.84 226.96,398.19 C234.12,405.08 239.55,407.47 241.78,404.75 ZM 205.11 360.81 C205.02,367.02 204.80,372.94 204.54,375.80 C204.53,375.80 204.53,375.80 204.53,375.80 C204.21,376.12 204.07,360.32 204.22,340.69 C204.33,326.41 204.25,314.02 204.04,308.33 C204.12,308.07 204.19,307.79 204.24,307.50 C204.45,306.41 204.39,305.47 204.11,305.13 L 206.74 306.52 C208.79,307.61 213.63,310.33 217.49,312.58 L 218.00 312.88 C214.21,310.74 210.97,308.90 209.63,308.13 C205.10,305.52 204.17,305.97 205.71,310.04 C206.49,312.11 206.57,316.89 205.97,325.96 C205.52,332.66 205.17,344.34 205.15,352.77 C205.13,354.18 205.13,355.55 205.12,356.86 C205.12,358.21 205.12,359.53 205.11,360.81 ZM 247.84 124.70 C247.92,111.38 247.62,108.76 246.45,107.60 C244.61,105.75 245.33,104.00 247.93,104.00 C248.15,104.00 248.41,104.03 248.69,104.09 C248.60,104.10 248.54,104.13 248.49,104.17 C248.32,104.35 248.28,105.97 248.38,108.24 C248.16,111.97 247.96,117.85 247.84,124.70 ZM 246.94 413.20 C248.41,413.32 255.65,409.62 269.75,401.56 L 248.17 413.91 ZM 73.85 286.50 C73.39,284.17 73.02,281.92 72.72,279.04 C73.24,282.59 73.87,286.15 74.60,289.69 C78.33,308.25 84.95,326.51 94.14,343.33 C84.56,325.79 78.01,307.45 73.85,286.50 ZM 70.42 162.78 C70.41,158.24 70.42,154.24 70.45,151.02 C70.45,154.53 70.45,158.31 70.45,162.28 C70.44,162.44 70.43,162.60 70.42,162.78 ZM 262.59 112.26 C261.81,111.62 260.94,110.95 260.03,110.30 C258.60,109.25 257.07,108.22 255.60,107.30 C257.96,108.72 260.45,110.47 262.59,112.26 ZM 202.01 249.88 L 202.01 249.87 C202.80,251.75 202.97,256.38 203.00,271.59 C202.97,256.39 202.80,251.76 202.01,249.88 ZM 119.94 203.37 C119.85,203.30 119.78,203.24 119.72,203.19 C119.66,203.14 119.60,203.08 119.54,203.03 C119.76,203.20 120.04,203.41 120.37,203.64 C120.22,203.55 120.08,203.46 119.94,203.37 ZM 203.86 305.00 C203.85,305.00 203.84,304.99 203.83,304.99 Z" fill="rgb(48,152,176)"/>
<path d="M 203.29 298.19 C203.32,290.64 203.20,280.61 203.00,271.61 L 203.00 271.59 C202.97,256.38 202.80,251.75 202.01,249.87 C201.96,249.57 201.91,249.39 201.86,249.33 C201.80,249.26 201.65,249.14 201.43,248.99 C201.37,248.93 201.31,248.87 201.25,248.82 C199.04,246.93 167.45,230.00 166.14,230.00 C165.61,230.00 165.02,229.62 164.84,229.16 L 164.83 229.15 L 164.83 229.15 C164.77,228.99 164.20,228.57 163.22,227.93 L 163.22 227.93 C162.72,227.60 162.11,227.22 161.39,226.78 C160.08,225.98 158.42,225.00 156.41,223.85 C151.25,220.89 143.77,216.75 134.09,211.50 C129.05,208.77 123.71,205.70 120.37,203.64 C120.04,203.41 119.76,203.20 119.54,203.03 C119.20,202.68 118.93,202.26 118.72,201.52 C118.19,198.83 118.09,191.50 118.32,176.86 C118.54,163.46 118.89,151.27 119.11,149.76 C119.14,149.53 119.19,149.30 119.26,149.08 C120.10,150.09 122.90,151.94 126.20,153.60 C130.15,155.59 134.99,158.22 136.95,159.44 C138.90,160.65 146.80,164.94 154.50,168.96 C162.20,172.98 169.04,176.69 169.71,177.22 C172.74,179.62 173.00,176.58 173.00,138.69 C173.00,117.69 173.30,90.70 173.66,78.72 C173.86,72.10 174.01,67.48 174.19,64.18 C173.96,68.61 173.80,75.43 173.55,86.27 C173.17,102.35 173.01,129.67 173.18,146.98 L 173.50 178.47 L 190.00 187.59 C199.07,192.60 215.50,201.69 226.50,207.78 C237.50,213.87 247.26,218.88 248.18,218.92 C248.35,218.93 248.60,218.89 248.93,218.80 C248.94,218.86 248.95,218.91 248.97,218.95 C248.49,219.14 248.04,219.31 247.69,219.42 C245.96,219.96 245.89,222.17 246.19,262.74 C246.36,286.26 246.33,329.49 246.12,358.82 C245.87,392.85 246.07,411.52 246.69,413.06 L 246.67 413.04 C246.02,411.70 245.77,396.72 245.91,368.67 L 246.14 325.25 L 243.70 325.72 C242.30,325.98 240.60,325.53 235.19,322.64 C232.60,321.12 228.85,318.97 225.00,316.81 C222.66,315.50 220.24,314.14 218.00,312.88 L 218.00 312.88 L 217.49 312.58 C213.63,310.33 208.79,307.61 206.74,306.52 L 204.11 305.13 C204.04,305.05 203.96,305.00 203.86,305.00 L 203.86 305.00 L 203.83 304.99 C203.63,304.79 203.44,302.25 203.29,298.19 ZM 247.84 124.70 C247.81,126.49 247.79,128.33 247.77,130.23 L 247.50 156.46 L 238.50 161.57 C233.55,164.38 224.68,169.41 218.80,172.76 C212.91,176.10 207.23,179.11 206.16,179.45 C204.28,180.04 204.21,179.12 203.63,148.28 C203.49,140.52 203.35,132.05 203.23,124.31 C203.30,125.24 203.38,125.81 203.46,125.94 C203.66,126.25 203.71,126.57 203.89,126.73 C204.58,127.38 207.25,125.89 227.90,114.35 C230.20,113.07 232.71,111.67 235.48,110.12 C239.43,107.92 243.23,105.98 245.64,104.90 C245.20,105.58 245.43,106.58 246.45,107.60 C247.62,108.76 247.92,111.38 247.84,124.70 ZM 267.49 209.03 L 267.40 209.08 C280.30,201.95 299.87,191.23 310.26,185.64 C307.30,187.29 303.96,189.14 300.50,191.03 C290.05,196.72 275.20,204.82 267.49,209.03 ZM 125.87 143.53 C127.11,142.81 128.58,141.98 130.31,141.01 C134.04,138.94 137.44,137.10 139.53,136.02 C133.39,139.32 128.99,141.74 125.87,143.53 ZM 248.51 412.82 C251.60,411.65 258.61,407.92 269.68,401.60 C258.42,408.03 251.56,411.68 248.51,412.82 ZM 145.65 132.54 L 146.84 131.69 C146.81,131.73 146.78,131.76 146.75,131.78 C146.54,131.95 146.15,132.22 145.65,132.54 ZM 248.05 104.00 C248.07,104.00 248.08,104.00 248.10,104.00 C248.30,104.00 248.52,104.03 248.77,104.08 C248.74,104.08 248.71,104.08 248.69,104.09 C248.45,104.04 248.24,104.01 248.05,104.00 Z" fill="rgb(43,211,223)"/>
<path d="M 404.50 338.52 C405.21,336.83 405.75,335.29 406.11,333.92 C406.30,333.29 406.42,332.75 406.48,332.30 C406.53,331.93 406.58,331.53 406.64,331.11 L 406.64 331.11 C407.24,327.67 409.45,320.25 411.18,315.53 C411.62,314.85 411.89,314.10 411.96,313.49 C412.35,312.54 412.69,311.84 412.93,311.50 C413.34,310.95 414.26,307.93 414.98,304.78 C415.65,301.88 416.50,299.65 416.94,299.52 C417.30,299.70 417.66,299.41 417.84,298.48 C417.91,298.18 417.91,297.84 417.87,297.50 C418.23,295.99 418.63,293.77 418.97,291.25 C419.61,286.44 420.79,278.67 421.57,274.00 C422.36,269.33 423.00,264.26 423.00,262.75 C423.00,261.24 423.52,260.00 424.15,260.00 C425.01,260.00 425.11,255.80 424.53,243.75 C424.11,234.81 423.56,219.62 423.31,210.00 C422.76,188.33 422.78,185.03 421.49,184.40 C421.16,184.24 420.75,184.25 420.22,184.18 C418.91,183.99 415.97,185.16 413.30,186.93 C410.75,188.62 408.29,190.00 407.83,190.00 C407.38,190.00 404.80,191.58 402.12,193.51 C399.43,195.44 395.71,197.53 393.86,198.15 C392.01,198.78 389.83,199.83 389.00,200.50 C386.85,202.25 368.21,212.00 367.02,212.00 C366.47,212.00 362.78,214.08 358.81,216.62 C349.41,222.65 342.77,226.43 336.04,229.59 C333.04,231.00 329.25,233.11 327.61,234.28 C325.57,235.73 324.51,236.02 324.23,235.20 C324.01,234.54 323.20,234.00 322.42,234.00 L 322.41 234.00 C321.36,234.00 314.34,237.35 308.90,240.22 C309.65,239.83 310.44,239.42 311.24,239.01 C321.31,233.87 327.96,230.28 357.50,213.98 C388.56,196.84 390.35,195.84 391.50,194.99 C392.05,194.59 397.23,191.86 403.00,188.93 C408.77,186.01 415.50,182.35 417.95,180.81 C420.39,179.26 423.28,178.00 424.36,178.00 C426.29,178.00 426.32,178.70 425.69,222.95 C424.94,276.10 423.76,286.89 416.15,310.50 C413.36,319.12 409.21,329.03 404.50,338.52 ZM 373.73 298.69 C373.73,298.70 373.72,298.71 373.71,298.72 C373.53,298.86 373.33,299.09 373.09,299.38 C372.39,300.22 370.67,303.72 369.06,307.50 C372.91,298.18 375.67,288.47 377.50,278.00 C379.37,267.34 379.50,257.00 377.75,257.00 C376.59,257.01 368.41,261.35 343.50,275.17 C338.00,278.23 331.25,282.06 328.50,283.68 L 323.63 286.56 C323.73,285.98 323.84,285.51 323.97,285.11 C324.23,284.32 324.57,283.82 324.99,283.29 C325.19,283.03 325.38,282.78 325.55,282.55 C326.36,281.47 327.04,280.45 327.18,280.10 C327.36,279.66 330.65,278.05 334.50,276.52 C338.35,274.99 343.30,272.53 345.50,271.06 C350.96,267.39 358.19,263.28 366.31,259.21 C371.63,256.55 373.85,255.94 376.45,256.42 C380.70,257.22 381.12,258.88 379.86,269.84 C379.31,274.60 378.52,281.91 378.10,286.08 C377.29,294.06 376.90,295.16 373.73,298.69 ZM 229.00 20.75 C229.00,22.72 224.92,25.79 221.46,26.44 C219.17,26.87 216.82,28.25 215.29,30.07 C213.93,31.68 212.30,33.00 211.66,33.00 C210.56,33.00 201.55,37.10 194.00,41.04 C183.89,46.32 180.98,48.17 180.02,49.97 C179.44,51.05 177.90,53.09 176.60,54.49 C175.13,56.07 174.57,56.80 174.19,64.18 L 174.19 64.18 L 174.19 64.20 C174.01,67.49 173.86,72.11 173.66,78.72 C173.30,90.70 173.00,117.69 173.00,138.69 C173.00,159.19 172.92,169.48 172.37,174.24 C172.80,166.92 173.00,147.31 173.00,114.45 L 173.00 52.02 L 181.75 47.49 C186.56,45.01 199.50,37.77 210.50,31.43 C216.79,27.80 223.56,23.89 229.00,20.75 ZM 248.99 64.49 C249.01,64.51 249.05,64.55 249.09,64.59 C249.14,64.70 249.18,64.78 249.23,64.83 C249.91,65.51 259.80,71.34 271.22,77.78 L 291.97 89.50 L 271.24 77.80 C259.83,71.37 249.72,65.81 248.77,65.45 C247.61,65.02 242.19,67.52 232.62,72.90 C224.69,77.35 217.89,81.00 217.50,81.00 C217.11,81.00 213.70,82.91 209.91,85.25 L 203.04 89.49 C203.26,86.36 203.83,85.97 205.17,85.26 C206.45,84.59 208.53,84.02 209.79,84.01 C212.47,84.00 216.77,81.42 219.28,78.31 C220.25,77.11 222.05,75.82 223.28,75.46 C224.50,75.09 229.10,72.42 233.50,69.53 C242.20,63.80 247.10,62.21 248.99,64.49 ZM 283.61 123.95 C281.64,122.85 279.56,122.01 278.71,122.01 C278.70,122.01 278.68,122.00 278.67,122.00 C278.63,122.00 278.60,122.00 278.56,122.00 C278.55,122.00 278.54,122.00 278.53,122.00 C278.36,121.99 278.19,121.97 278.01,121.94 C276.83,121.75 275.27,121.14 273.54,120.24 C273.39,120.17 273.23,120.08 273.08,120.00 L 273.06 119.99 C272.66,119.78 272.25,119.54 271.84,119.30 C269.25,117.76 266.44,115.72 264.11,113.56 C263.65,113.14 263.14,112.71 262.59,112.26 L 262.59 112.26 C260.45,110.47 257.97,108.73 255.61,107.30 C257.18,108.18 259.05,109.20 261.00,110.22 C281.55,121.08 289.03,125.23 289.55,126.09 C289.79,126.47 290.01,126.75 290.21,126.91 C289.10,126.93 287.83,126.28 285.10,124.75 C284.61,124.47 284.11,124.21 283.61,123.95 ZM 249.07 11.10 C249.06,11.12 249.05,11.13 249.04,11.14 C248.31,11.25 248.00,11.87 248.00,13.00 C248.00,14.51 247.32,15.01 245.25,15.03 C243.74,15.05 239.84,16.38 236.60,18.00 C233.35,19.61 230.31,20.69 229.85,20.41 C229.80,20.38 229.76,20.36 229.72,20.34 C233.47,18.18 236.52,16.42 238.23,15.44 C242.48,13.00 247.00,11.00 248.28,11.00 C248.50,11.00 248.77,11.04 249.07,11.10 ZM 323.49 287.58 L 323.00 320.57 C322.98,321.76 322.97,322.96 322.95,324.14 C322.95,319.17 322.95,314.52 322.95,310.30 L 322.95 310.30 C322.99,297.13 323.10,290.89 323.49,287.58 ZM 354.13 403.36 C354.88,402.73 355.67,402.06 356.47,401.34 C360.65,397.64 365.40,392.85 370.18,387.61 C370.83,386.90 371.47,386.18 372.12,385.46 C372.21,385.35 372.31,385.25 372.40,385.14 C372.66,384.85 372.91,384.57 373.17,384.28 C366.71,391.68 360.10,398.40 354.13,403.36 ZM 291.45 124.98 C291.85,122.35 291.99,117.06 291.99,108.25 L 291.99 109.25 L 291.99 109.25 C291.99,117.68 292.00,122.53 291.45,124.98 ZM 323.18 364.97 C323.13,364.48 323.10,363.86 323.07,363.10 C323.35,365.46 323.80,366.90 324.33,366.99 C324.31,367.00 324.29,367.00 324.27,367.00 C323.74,367.00 323.39,366.35 323.18,364.97 ZM 368.57 308.69 C368.55,308.74 368.53,308.79 368.51,308.84 C366.14,314.62 362.96,320.77 359.11,327.02 C362.79,321.01 365.92,314.93 368.57,308.69 ZM 249.40 104.08 C250.32,104.08 250.99,104.36 251.55,104.87 C251.64,104.95 251.82,105.08 252.10,105.25 C250.98,104.66 250.04,104.25 249.40,104.08 ZM 395.82 354.28 C396.03,353.96 396.24,353.63 396.44,353.31 C395.69,354.57 394.93,355.80 394.17,357.00 C391.35,361.47 387.70,366.52 383.66,371.67 C387.72,366.49 391.36,361.43 394.14,357.00 C394.72,356.09 395.28,355.18 395.82,354.28 ZM 203.67 126.25 C203.79,126.45 203.83,126.65 203.94,126.78 C203.92,126.76 203.90,126.75 203.89,126.73 C203.71,126.57 203.66,126.25 203.46,125.94 C203.38,125.81 203.30,125.24 203.23,124.31 L 203.22 123.50 C203.35,125.00 203.50,125.97 203.67,126.25 ZM 171.31 177.72 C170.88,178.00 170.36,177.73 169.71,177.22 C170.16,177.58 170.78,177.76 171.31,177.72 ZM 203.01 89.99 L 202.91 95.23 C202.91,92.96 202.94,91.27 203.01,89.99 ZM 347.02 344.06 C343.92,347.77 340.03,352.08 336.34,355.95 C340.03,352.06 343.93,347.75 347.02,344.06 ZM 210.28 124.12 C214.72,121.72 222.33,117.46 235.48,110.12 C232.71,111.67 230.20,113.07 227.90,114.35 C219.29,119.16 213.80,122.23 210.28,124.12 ZM 242.56 106.37 C240.48,107.41 238.01,108.71 235.48,110.12 C238.31,108.54 240.64,107.30 242.56,106.37 Z" fill="rgb(67,105,120)"/>
<path d="M 246.94 413.20 L 246.69 413.06 C246.07,411.52 245.87,392.85 246.12,358.82 C246.33,329.49 246.36,286.26 246.19,262.74 C245.89,222.17 245.96,219.96 247.69,219.42 L 247.70 219.42 C246.27,220.11 246.20,225.32 246.68,273.69 C247.58,362.89 248.46,408.43 249.31,409.75 C249.75,410.44 250.81,411.00 251.66,411.00 C252.51,411.00 261.94,406.01 272.60,399.91 L 277.24 397.26 L 270.08 401.36 L 269.75 401.56 L 269.68 401.59 L 269.68 401.60 C258.61,407.92 251.60,411.65 248.51,412.82 C247.76,413.10 247.24,413.22 246.94,413.20 ZM 291.45 124.98 C291.22,126.02 290.89,126.63 290.43,126.90 C290.36,126.90 290.28,126.91 290.21,126.91 C290.01,126.75 289.79,126.47 289.55,126.09 C289.22,125.54 286.06,123.66 278.50,119.56 C280.07,120.38 281.52,121.12 282.79,121.77 C288.98,124.92 290.23,125.25 291.03,123.99 C291.55,123.17 291.97,115.07 291.97,106.00 L 291.97 89.50 L 291.99 108.25 C291.99,117.06 291.85,122.35 291.45,124.98 ZM 262.87 111.21 C262.26,110.89 261.63,110.56 261.00,110.22 C259.05,109.20 257.18,108.18 255.61,107.30 L 255.60 107.30 C255.30,107.11 255.00,106.92 254.71,106.74 C257.40,108.23 260.15,109.73 262.87,111.21 ZM 248.55 219.11 C248.68,219.06 248.83,219.01 248.97,218.95 L 248.97 218.95 C248.83,219.01 248.68,219.06 248.55,219.11 Z" fill="rgb(112,136,147)"/>
<path d="M 248.55 219.11 L 248.55 219.11 C248.68,219.06 248.83,219.01 248.97,218.95 C248.99,218.98 249.00,219.00 249.02,219.00 C249.48,219.00 252.48,217.48 255.68,215.63 C256.26,215.29 257.12,214.80 258.22,214.19 C254.22,216.48 251.29,218.27 250.68,218.81 C248.96,220.35 248.85,223.42 248.80,271.97 C248.77,300.31 248.56,342.28 248.33,365.24 C248.26,372.27 248.21,378.22 248.19,383.27 C247.69,360.87 247.19,324.31 246.68,273.69 C246.20,225.32 246.27,220.11 247.70,219.42 C247.94,219.34 248.23,219.24 248.55,219.11 ZM 249.09 408.41 C249.33,409.43 249.64,410.06 250.02,410.44 C249.72,410.24 249.47,410.01 249.31,409.75 C249.23,409.64 249.16,409.19 249.09,408.41 ZM 251.65 411.00 C252.43,410.98 259.59,407.24 268.41,402.29 C259.57,407.26 252.40,411.00 251.66,411.00 Z" fill="rgb(162,190,194)"/>
<path d="M 248.82 104.08 C248.81,104.08 248.79,104.08 248.77,104.08 C248.52,104.03 248.30,104.00 248.10,104.00 C248.08,104.00 248.07,104.00 248.05,104.00 C248.01,104.00 247.97,104.00 247.93,104.00 C246.77,104.00 245.99,104.35 245.64,104.90 C244.77,105.29 243.73,105.78 242.56,106.37 C241.80,106.74 240.99,107.15 240.10,107.61 C244.18,105.41 247.81,103.17 248.17,102.63 C248.54,102.08 248.90,93.39 248.96,83.32 C249.02,71.97 248.84,66.82 248.26,65.41 C248.48,65.39 248.64,65.41 248.77,65.45 C249.72,65.81 259.83,71.37 271.24,77.80 L 291.97 89.50 L 291.97 106.00 C291.97,115.07 291.55,123.17 291.03,123.99 C290.23,125.25 288.98,124.92 282.79,121.77 C281.52,121.12 280.07,120.38 278.50,119.56 C274.56,117.42 269.43,114.68 262.87,111.21 C260.15,109.73 257.40,108.23 254.71,106.74 C253.78,106.18 252.89,105.67 252.10,105.25 C251.82,105.08 251.64,104.95 251.55,104.87 C250.99,104.36 250.32,104.08 249.40,104.08 C249.20,104.03 249.03,104.00 248.89,104.00 C248.87,104.00 248.85,104.03 248.82,104.08 ZM 281.00 115.79 C281.25,115.94 281.48,116.08 281.71,116.21 C283.76,117.43 285.04,118.19 285.85,117.85 C287.27,117.24 287.23,113.20 287.38,102.20 C287.50,94.21 287.39,93.81 284.50,91.10 C281.57,88.34 277.02,85.66 270.00,82.52 C268.08,81.66 264.26,79.39 261.51,77.48 C258.77,75.57 256.23,74.00 255.88,74.00 C253.78,74.00 252.25,79.38 251.78,88.34 C251.19,99.78 251.36,100.07 261.50,105.10 C267.28,107.97 273.61,111.44 281.00,115.79 ZM 249.09 408.41 C248.79,405.30 248.49,396.91 248.19,383.27 C248.21,378.22 248.26,372.27 248.33,365.24 C248.56,342.28 248.77,300.31 248.80,271.97 C248.85,223.51 248.96,220.36 250.67,218.82 C248.97,220.36 248.88,223.46 249.09,273.25 C249.21,302.30 249.69,326.31 250.16,326.60 C250.62,326.88 251.00,344.62 251.00,366.01 C251.00,368.55 251.00,370.94 251.00,373.19 C250.98,397.63 250.97,405.22 253.55,406.24 C254.71,406.69 256.40,405.82 258.84,404.55 C259.34,404.29 259.87,404.01 260.43,403.73 C263.77,402.05 266.82,400.15 267.21,399.51 C267.59,398.86 271.05,396.89 274.88,395.13 C279.06,393.20 283.28,390.33 285.42,387.95 L 289.00 383.99 L 289.00 347.43 C289.00,324.66 288.62,310.15 287.99,308.98 C287.18,307.48 287.39,306.86 288.99,306.01 C290.93,304.97 291.00,303.96 291.00,277.50 L 291.00 250.07 L 294.73 247.54 C295.63,246.93 296.59,246.37 297.48,245.93 C296.67,246.38 295.82,246.96 295.08,247.59 L 292.00 250.18 L 292.00 388.82 L 277.24 397.26 L 277.24 397.27 L 272.60 399.91 C271.27,400.68 269.96,401.42 268.68,402.14 L 268.41 402.29 C259.59,407.24 252.43,410.98 251.65,411.00 C251.12,411.00 250.51,410.77 250.02,410.44 C249.64,410.06 249.33,409.43 249.09,408.41 ZM 425.81 180.69 C425.56,178.10 425.10,178.00 424.36,178.00 C423.28,178.00 420.39,179.26 417.95,180.81 C415.50,182.35 408.77,186.01 403.00,188.93 C397.23,191.86 392.05,194.59 391.50,194.99 C390.46,195.76 388.91,196.65 365.84,209.38 C372.41,205.66 376.97,202.95 377.23,202.57 C377.64,201.98 377.98,200.58 377.98,199.45 C378.00,197.90 379.22,196.96 383.02,195.59 C385.78,194.60 389.49,192.82 391.27,191.64 C393.05,190.46 397.88,187.75 402.00,185.63 C406.12,183.51 410.17,181.20 411.00,180.50 C411.83,179.80 414.43,178.26 416.79,177.08 C419.34,175.80 421.48,173.86 422.07,172.31 C422.63,170.84 423.04,159.81 423.00,147.10 C422.96,134.67 422.95,123.73 422.97,122.78 C422.99,121.61 423.52,121.26 424.63,121.69 C426.00,122.21 426.18,127.56 425.81,180.69 ZM 422.80 283.29 C423.91,275.56 424.57,266.60 425.01,254.21 C424.68,268.16 424.24,274.35 423.51,279.00 C423.29,280.44 423.05,281.87 422.80,283.29 ZM 404.50 338.52 C407.81,331.85 410.85,324.96 413.33,318.46 C410.56,325.98 407.33,333.29 403.66,340.40 C403.96,339.76 404.24,339.13 404.50,338.52 ZM 234.30 110.78 C223.84,116.62 217.03,120.43 212.57,122.87 C214.28,121.92 216.36,120.76 218.86,119.36 C223.84,116.56 229.71,113.31 234.30,110.78 ZM 381.14 374.84 C377.07,379.92 372.74,384.93 368.50,389.48 C370.05,387.80 371.61,386.06 373.17,384.28 L 373.17 384.28 L 373.17 384.28 C373.86,383.49 374.55,382.70 375.24,381.90 C377.25,379.58 379.23,377.21 381.14,374.84 ZM 395.82 354.28 C396.03,353.96 396.24,353.63 396.44,353.31 C395.69,354.57 394.93,355.80 394.17,357.00 C391.35,361.47 387.70,366.52 383.66,371.67 C387.72,366.49 391.36,361.43 394.14,357.00 C394.72,356.09 395.28,355.18 395.82,354.28 ZM 203.67 126.25 C203.91,126.65 204.09,126.91 204.77,126.77 C204.33,126.89 204.10,126.88 203.94,126.78 C203.83,126.65 203.79,126.45 203.67,126.25 ZM 312.24 238.49 C313.78,237.71 315.45,236.85 317.09,235.99 C315.14,237.01 313.26,237.98 311.24,239.01 C311.57,238.84 311.90,238.67 312.24,238.49 ZM 217.50 81.00 C217.90,80.99 224.60,77.40 232.44,73.00 C224.62,77.40 217.91,80.99 217.50,81.00 ZM 232.62 72.90 C233.11,72.62 233.59,72.35 234.06,72.09 C233.59,72.36 233.10,72.63 232.62,72.90 Z" fill="rgb(179,157,91)"/>
<path d="M 287.83 306.84 C287.37,307.38 287.46,307.98 287.99,308.98 C288.62,310.15 289.00,324.66 289.00,347.43 L 289.00 383.99 L 285.42 387.95 C283.28,390.33 279.06,393.20 274.88,395.13 C271.05,396.89 267.59,398.86 267.21,399.51 C266.82,400.15 263.77,402.05 260.43,403.73 C259.87,404.01 259.34,404.29 258.84,404.55 C256.40,405.82 254.71,406.69 253.55,406.24 C250.97,405.22 250.98,397.63 251.00,373.19 C251.00,370.94 251.00,368.55 251.00,366.01 C251.00,344.62 250.62,326.88 250.16,326.60 C250.04,326.53 249.93,325.04 249.82,322.41 C250.02,325.36 250.28,326.55 250.61,326.68 C251.32,326.95 255.63,325.05 260.20,322.46 C264.76,319.86 273.45,314.94 279.50,311.53 ZM 422.97 122.63 C422.97,122.68 422.97,122.73 422.97,122.78 C422.95,123.73 422.96,134.67 423.00,147.10 C423.04,159.81 422.63,170.84 422.07,172.31 C421.48,173.86 419.34,175.80 416.79,177.08 C414.43,178.26 411.83,179.80 411.00,180.50 C410.17,181.20 406.12,183.51 402.00,185.63 C397.88,187.75 393.05,190.46 391.27,191.64 C389.49,192.82 385.78,194.60 383.02,195.59 C379.22,196.96 378.00,197.90 377.98,199.45 C377.98,200.58 377.64,201.98 377.23,202.57 C377.21,202.60 377.17,202.64 377.10,202.70 C377.38,200.08 377.76,188.69 378.00,175.29 L 378.50 147.75 L 391.50 140.29 C398.65,136.19 408.66,130.83 413.75,128.38 C418.78,125.96 422.61,123.56 422.97,122.63 ZM 281.00 115.79 C279.91,115.15 278.84,114.53 277.79,113.92 C277.80,113.92 277.80,113.92 277.81,113.93 C277.98,113.97 277.42,113.01 276.56,111.79 C275.71,110.57 273.15,109.03 270.87,108.35 C267.54,107.37 266.83,107.54 268.75,108.86 C266.22,107.50 263.82,106.25 261.50,105.10 C251.36,100.07 251.19,99.78 251.78,88.34 C252.20,80.33 253.47,75.18 255.23,74.18 C255.07,74.31 255.00,74.53 255.00,74.85 C255.00,75.31 256.01,76.18 257.25,76.78 C260.44,78.32 262.06,78.21 260.71,76.93 C260.97,77.11 261.24,77.29 261.51,77.48 C264.26,79.39 268.08,81.66 270.00,82.52 C277.02,85.66 281.57,88.34 284.50,91.10 C284.87,91.45 285.20,91.76 285.49,92.05 C284.20,90.83 284.12,91.20 283.53,93.87 C283.15,95.58 282.43,97.23 281.92,97.55 C281.42,97.86 281.00,98.54 281.00,99.06 C281.00,99.58 281.45,100.00 282.00,100.00 C282.55,100.00 283.00,99.50 283.00,98.88 C283.00,98.27 283.88,98.00 284.97,98.28 C286.12,98.58 286.96,98.19 287.39,97.44 C287.43,98.65 287.41,100.18 287.38,102.20 C287.23,113.20 287.27,117.24 285.85,117.85 C285.04,118.19 283.76,117.43 281.71,116.21 C281.48,116.08 281.25,115.94 281.00,115.79 ZM 291.00 253.33 L 291.00 277.50 C291.00,293.55 290.97,300.24 290.52,303.24 L 290.77 277.69 ZM 256.62 74.33 C256.09,74.10 255.70,74.02 255.44,74.08 C255.58,74.03 255.73,74.00 255.88,74.00 C255.97,74.00 256.24,74.12 256.62,74.33 ZM 423.76 121.52 C423.35,121.55 423.10,121.82 423.01,122.33 C423.05,121.82 423.31,121.54 423.76,121.52 ZM 297.50 245.92 L 297.48 245.93 C296.60,246.37 295.64,246.92 294.75,247.53 C295.64,246.92 296.61,246.36 297.50,245.92 Z" fill="rgb(200,152,52)"/>
<path d="M 422.97 122.63 C422.61,123.56 418.78,125.96 413.75,128.38 C408.66,130.83 398.65,136.19 391.50,140.29 L 378.50 147.75 L 378.00 175.29 C377.81,185.50 377.55,194.54 377.31,199.43 C377.33,194.67 377.22,184.96 377.02,174.05 L 376.50 146.59 L 363.58 139.93 C356.48,136.26 350.07,132.44 349.33,131.44 C348.31,130.04 348.00,123.98 348.00,105.31 C348.00,82.57 348.12,81.00 349.80,81.00 C350.79,81.00 352.03,81.38 352.55,81.86 C353.07,82.33 358.90,85.55 365.50,89.02 C372.10,92.48 378.85,96.08 380.50,97.01 C392.64,103.83 394.92,105.26 396.51,107.02 C397.50,108.11 399.18,109.00 400.25,109.00 C402.11,109.00 409.18,112.56 420.86,119.37 L 426.21 122.50 L 425.93 160.51 C426.10,126.11 425.80,122.14 424.63,121.69 C424.28,121.55 423.99,121.50 423.76,121.52 C423.31,121.54 423.05,121.82 423.01,122.33 C422.99,122.42 422.98,122.52 422.97,122.63 ZM 287.83 306.84 L 279.50 311.53 C273.45,314.94 264.76,319.86 260.20,322.46 C255.63,325.05 251.32,326.95 250.61,326.68 C250.47,326.63 250.35,326.41 250.24,325.97 C250.67,325.70 251.04,323.45 251.08,320.75 C251.17,314.75 251.51,303.09 252.52,270.77 C253.13,251.21 253.48,247.76 254.98,246.02 C257.90,242.65 261.70,243.83 268.65,250.28 C271.14,252.59 272.40,253.08 274.65,252.60 C279.01,251.69 281.72,254.58 279.87,258.18 C279.31,259.27 279.47,260.33 280.34,261.20 C283.33,264.18 285.66,272.14 283.08,270.55 C282.06,269.92 280.46,275.80 281.40,276.74 C281.73,277.07 282.03,276.70 282.06,275.92 C282.23,272.07 285.88,286.68 286.48,293.58 C287.32,303.38 287.76,305.00 289.57,305.00 C290.00,305.00 290.31,304.44 290.53,302.65 L 290.52 303.24 C290.23,305.19 289.75,305.60 288.99,306.01 C288.45,306.30 288.07,306.56 287.83,306.84 ZM 285.49 92.05 C286.85,93.46 287.29,94.48 287.39,97.44 C286.96,98.19 286.12,98.58 284.97,98.28 C283.88,98.00 283.00,98.27 283.00,98.88 C283.00,99.50 282.55,100.00 282.00,100.00 C281.45,100.00 281.00,99.58 281.00,99.06 C281.00,98.54 281.42,97.86 281.92,97.55 C282.43,97.23 283.15,95.58 283.53,93.87 C284.12,91.20 284.20,90.83 285.49,92.05 ZM 277.79 113.92 C274.59,112.07 271.60,110.39 268.75,108.86 C266.83,107.54 267.54,107.37 270.87,108.35 C273.15,109.03 275.71,110.57 276.56,111.79 C277.42,113.01 277.98,113.97 277.81,113.93 C277.80,113.92 277.80,113.92 277.79,113.92 ZM 256.62 74.33 C257.50,74.81 259.03,75.78 260.71,76.93 C262.06,78.21 260.44,78.32 257.25,76.78 C256.01,76.18 255.00,75.31 255.00,74.85 C255.00,74.53 255.07,74.31 255.23,74.18 C255.30,74.14 255.37,74.11 255.44,74.08 C255.70,74.02 256.09,74.10 256.62,74.33 ZM 275.82 242.33 C276.01,243.32 275.50,244.00 274.57,244.00 C273.65,244.00 273.00,243.15 273.00,241.92 C273.00,239.48 275.34,239.82 275.82,242.33 ZM 258.00 237.25 C258.00,238.03 257.31,238.67 256.47,238.67 C254.74,238.67 255.00,236.83 256.81,236.23 C257.47,236.01 258.00,236.47 258.00,237.25 ZM 312.24 238.49 C311.90,238.67 311.57,238.84 311.24,239.01 C310.59,239.34 309.95,239.67 309.34,240.00 C310.41,239.42 311.56,238.82 312.74,238.21 C316.47,236.29 321.27,233.78 325.15,231.72 C322.08,233.37 319.53,234.72 317.09,235.99 C315.45,236.85 313.78,237.71 312.24,238.49 ZM 249.87 323.08 C249.85,322.87 249.83,322.64 249.82,322.41 C249.48,314.28 249.18,295.21 249.09,273.25 C249.19,296.22 249.51,315.88 249.87,323.08 ZM 377.10 202.69 L 377.10 202.70 C377.09,202.70 377.08,202.71 377.07,202.72 C377.08,202.71 377.09,202.70 377.10,202.69 Z" fill="rgb(225,184,80)"/>
<path d="M 267.49 209.03 C275.20,204.82 290.05,196.72 300.50,191.03 C303.96,189.14 307.30,187.29 310.26,185.64 C310.69,185.41 311.10,185.18 311.50,184.97 C315.90,182.61 320.29,180.00 321.25,179.18 C321.96,178.57 322.39,177.42 322.64,171.54 L 323.00 171.20 L 322.99 118.57 C323.01,156.30 323.36,176.11 324.01,176.51 C325.49,177.42 371.39,152.64 373.96,149.55 C375.66,147.51 371.52,144.12 359.86,138.02 C356.49,136.26 353.33,134.38 351.28,132.95 C353.85,134.65 358.54,137.33 363.58,139.93 L 376.50 146.59 L 376.62 153.13 L 374.50 155.59 C373.13,157.19 372.00,158.83 372.00,159.23 C372.00,159.62 370.73,159.70 369.19,159.39 C365.99,158.75 354.15,164.50 350.21,168.61 C348.95,169.92 346.99,171.00 345.86,171.00 C344.73,171.00 340.14,172.97 335.65,175.38 C331.17,177.79 326.00,180.03 324.17,180.37 C322.34,180.71 318.99,182.56 316.74,184.49 C314.48,186.42 312.22,188.00 311.70,188.00 C311.19,188.00 308.68,189.51 306.13,191.36 C303.59,193.21 299.02,195.52 296.00,196.49 C292.98,197.46 289.79,198.87 288.92,199.63 C288.05,200.38 287.05,201.00 286.69,201.00 C285.25,201.00 269.04,209.24 267.99,210.51 C267.37,211.26 265.57,212.15 264.00,212.50 C262.43,212.85 260.55,213.84 259.83,214.70 C259.12,215.56 256.87,217.32 254.85,218.60 C251.39,220.78 251.13,221.30 250.58,227.21 C250.26,230.67 249.88,254.31 249.75,279.75 C249.62,302.83 249.80,322.10 250.14,325.48 C250.04,324.91 249.95,324.12 249.87,323.08 C249.54,316.45 249.24,299.26 249.12,278.64 C249.11,276.86 249.10,275.07 249.09,273.25 C248.88,223.47 248.97,220.36 250.67,218.82 L 250.67 218.82 L 250.68 218.81 C251.29,218.27 254.22,216.48 258.22,214.19 C260.45,212.94 263.64,211.16 267.40,209.08 ZM 377.10 202.69 C377.09,202.70 377.08,202.71 377.07,202.72 C376.17,203.43 371.85,205.98 365.84,209.38 C363.32,210.77 360.55,212.30 357.50,213.98 C341.25,222.94 331.93,228.07 325.15,231.72 C321.27,233.78 316.47,236.29 312.74,238.21 C312.23,238.47 311.72,238.73 311.23,238.99 C311.61,238.68 311.77,238.44 311.64,238.31 C310.80,237.46 313.95,234.00 315.56,234.00 C316.25,234.00 318.70,232.43 321.00,230.50 C323.30,228.57 325.99,227.00 326.97,227.00 C327.95,227.00 329.37,226.25 330.13,225.33 C330.88,224.41 335.10,221.89 339.50,219.74 C351.10,214.07 353.24,212.84 357.59,209.42 C362.52,205.53 372.80,200.00 375.09,200.00 C375.91,200.00 376.79,200.41 377.23,200.95 C377.19,201.71 377.14,202.30 377.10,202.69 ZM 377.01 173.76 L 377.02 174.05 C377.17,182.03 377.27,189.38 377.30,194.61 C377.13,189.90 377.02,181.91 377.01,173.76 ZM 307.24 241.12 C304.63,242.53 302.68,243.71 302.43,244.11 L 302.43 244.11 C302.43,244.12 302.43,244.12 302.42,244.13 C302.22,244.44 301.67,244.72 301.04,244.88 C301.70,244.70 302.29,244.33 302.55,243.92 C302.89,243.36 304.94,242.15 307.24,241.12 ZM 348.68 129.29 C348.84,130.32 349.03,130.97 349.27,131.35 C349.14,131.21 349.05,131.10 349.00,131.00 C348.88,130.78 348.78,130.20 348.68,129.29 Z" fill="rgb(222,210,154)"/>
<path d="M 291.00 253.33 L 290.53 302.65 C290.31,304.44 290.00,305.00 289.57,305.00 C287.76,305.00 287.32,303.38 286.48,293.58 C285.88,286.68 282.23,272.07 282.06,275.92 C282.03,276.70 281.73,277.07 281.40,276.74 C280.46,275.80 282.06,269.92 283.08,270.55 C285.66,272.14 283.33,264.18 280.34,261.20 C279.47,260.33 279.31,259.27 279.87,258.18 C281.72,254.58 279.01,251.69 274.65,252.60 C272.40,253.08 271.14,252.59 268.65,250.28 C261.70,243.83 257.90,242.65 254.98,246.02 C253.48,247.76 253.13,251.21 252.52,270.77 C251.51,303.09 251.17,314.75 251.08,320.75 C251.04,323.45 250.67,325.70 250.24,325.97 C250.21,325.83 250.17,325.66 250.14,325.48 C249.80,322.10 249.62,302.83 249.75,279.75 C249.88,254.31 250.26,230.67 250.58,227.21 C251.13,221.30 251.39,220.78 254.85,218.60 C256.87,217.32 259.12,215.56 259.83,214.70 C260.55,213.84 262.43,212.85 264.00,212.50 C265.57,212.15 267.37,211.26 267.99,210.51 C269.04,209.24 285.25,201.00 286.69,201.00 C287.05,201.00 288.05,200.38 288.92,199.63 C289.79,198.87 292.98,197.46 296.00,196.49 C299.02,195.52 303.59,193.21 306.13,191.36 C308.68,189.51 311.19,188.00 311.70,188.00 C312.22,188.00 314.48,186.42 316.74,184.49 C318.99,182.56 322.34,180.71 324.17,180.37 C326.00,180.03 331.17,177.79 335.65,175.38 C340.14,172.97 344.73,171.00 345.86,171.00 C346.99,171.00 348.95,169.92 350.21,168.61 C354.15,164.50 365.99,158.75 369.19,159.39 C370.73,159.70 372.00,159.62 372.00,159.23 C372.00,158.83 373.13,157.19 374.50,155.59 L 376.62 153.13 L 377.01 173.76 C377.02,181.91 377.13,189.90 377.30,194.61 C377.31,196.52 377.32,198.15 377.31,199.43 C377.29,199.99 377.26,200.50 377.23,200.95 C376.79,200.41 375.91,200.00 375.09,200.00 C372.80,200.00 362.52,205.53 357.59,209.42 C353.24,212.84 351.10,214.07 339.50,219.74 C335.10,221.89 330.88,224.41 330.13,225.33 C329.37,226.25 327.95,227.00 326.97,227.00 C325.99,227.00 323.30,228.57 321.00,230.50 C318.70,232.43 316.25,234.00 315.56,234.00 C313.95,234.00 310.80,237.46 311.64,238.31 C311.77,238.44 311.61,238.68 311.23,238.99 C310.58,239.33 309.95,239.67 309.34,239.99 L 309.34 240.00 C309.19,240.07 309.05,240.15 308.90,240.22 C308.33,240.53 307.77,240.83 307.24,241.12 C304.94,242.15 302.89,243.36 302.55,243.92 C302.29,244.33 301.70,244.70 301.04,244.88 C300.71,244.96 300.36,245.00 300.02,245.00 C299.45,245.00 298.51,245.36 297.50,245.92 C296.61,246.36 295.64,246.92 294.75,247.53 C294.74,247.53 294.74,247.53 294.73,247.54 L 291.00 250.07 ZM 409.06 112.76 C404.34,110.28 401.36,109.00 400.25,109.00 C399.18,109.00 397.50,108.11 396.51,107.02 C395.24,105.61 393.52,104.41 386.66,100.49 C389.12,101.78 391.86,103.16 394.00,104.16 C397.58,105.83 401.17,107.78 402.00,108.47 C402.83,109.17 405.75,110.96 408.50,112.46 C408.68,112.55 408.86,112.66 409.06,112.76 ZM 275.82 242.33 C275.34,239.82 273.00,239.48 273.00,241.92 C273.00,243.15 273.65,244.00 274.57,244.00 C275.50,244.00 276.01,243.32 275.82,242.33 ZM 258.00 237.25 C258.00,236.47 257.47,236.01 256.81,236.23 C255.00,236.83 254.74,238.67 256.47,238.67 C257.31,238.67 258.00,238.03 258.00,237.25 ZM 425.89 168.22 C425.91,165.49 425.92,162.93 425.93,160.51 L 425.93 160.50 L 426.21 122.50 L 424.81 121.68 L 426.23 122.50 Z" fill="rgb(232,203,111)"/>
<path d="M 0.00 250.00 L 0.00 0.00 L 250.00 0.00 L 500.00 0.00 L 500.00 250.00 L 500.00 500.00 L 250.00 500.00 L 0.00 500.00 L 0.00 250.00 ZM 255.60 463.38 C259.39,461.38 263.17,459.17 264.00,458.46 C264.83,457.75 269.55,455.08 274.50,452.52 C279.45,449.96 284.17,447.29 285.00,446.58 C285.82,445.88 287.25,445.04 288.16,444.72 C289.08,444.39 297.53,439.60 306.94,434.06 C316.35,428.53 324.28,424.00 324.56,424.00 C325.84,424.00 347.30,409.02 354.13,403.36 C362.78,396.19 374.54,383.51 384.16,371.00 C405.11,343.75 418.19,313.17 423.51,279.00 C424.87,270.27 425.24,256.17 425.69,195.50 L 426.23 122.50 L 419.87 118.84 C416.36,116.82 411.25,113.95 408.50,112.46 C405.75,110.96 402.83,109.17 402.00,108.47 C401.17,107.78 397.58,105.83 394.00,104.16 C390.42,102.48 385.19,99.78 382.36,98.15 C379.54,96.52 371.89,92.37 365.36,88.95 C358.84,85.52 353.07,82.33 352.55,81.86 C352.03,81.38 350.79,81.00 349.80,81.00 C348.12,81.00 348.00,82.56 348.00,105.07 C348.00,119.20 348.41,129.90 349.00,131.00 C349.55,132.03 354.44,135.19 359.86,138.02 C371.52,144.12 375.66,147.51 373.96,149.55 C371.39,152.64 325.49,177.42 324.01,176.51 C323.35,176.10 322.99,155.29 322.99,115.69 C322.97,69.89 322.68,54.93 321.74,53.13 C320.98,51.69 315.99,48.33 309.00,44.55 C302.67,41.14 293.45,35.97 288.50,33.07 C283.55,30.17 275.00,25.28 269.50,22.22 C264.00,19.15 257.50,15.37 255.05,13.82 C252.61,12.27 249.56,11.00 248.28,11.00 C247.00,11.00 242.48,13.00 238.23,15.44 C233.98,17.88 221.50,25.08 210.50,31.43 C199.50,37.77 186.56,45.01 181.75,47.49 L 173.00 52.02 L 173.00 114.45 C173.00,156.74 172.66,177.09 171.96,177.53 C171.38,177.88 170.37,177.74 169.71,177.22 C169.04,176.69 162.20,172.98 154.50,168.96 C146.80,164.94 138.90,160.65 136.95,159.44 C134.99,158.22 130.15,155.59 126.20,153.60 C122.24,151.61 119.00,149.35 119.00,148.58 C119.00,147.35 123.20,144.80 141.00,135.23 C143.48,133.90 146.06,132.35 146.75,131.78 C147.69,131.01 148.00,124.57 148.00,105.88 C148.00,82.59 147.89,81.00 146.20,81.00 C145.21,81.00 143.97,81.41 143.45,81.91 C142.93,82.40 139.80,84.25 136.50,86.01 C99.26,105.88 75.01,119.17 72.94,120.85 C70.80,122.58 70.75,123.24 70.47,149.56 C70.31,164.38 70.56,199.00 71.02,226.50 C71.76,270.11 72.12,277.78 73.85,286.50 C78.01,307.45 84.56,325.79 94.14,343.33 C115.14,381.78 141.70,408.16 181.32,429.95 C187.11,433.13 235.27,460.85 241.50,464.58 C243.70,465.90 246.22,466.99 247.10,466.99 C247.98,467.00 251.80,465.37 255.60,463.38 ZM 162.23 359.25 C154.13,351.23 145.63,340.47 138.05,328.67 C133.76,322.00 123.00,298.36 123.00,295.62 C123.00,294.86 122.38,292.73 121.62,290.87 C120.16,287.33 117.48,272.50 116.54,262.75 C115.82,255.33 116.48,255.32 129.50,262.57 C135.00,265.64 142.43,269.77 146.00,271.76 C149.57,273.75 157.00,277.93 162.50,281.05 L 172.50 286.72 L 172.76 326.86 C172.99,361.78 172.83,367.00 171.54,367.00 C170.73,367.00 166.54,363.51 162.23,359.25 ZM 322.87 360.75 C322.66,357.31 322.73,339.23 323.00,320.57 L 323.50 286.64 L 328.50 283.68 C331.25,282.06 338.00,278.23 343.50,275.17 C368.41,261.35 376.59,257.01 377.75,257.00 C379.50,257.00 379.37,267.34 377.50,278.00 C373.50,300.83 365.11,320.05 350.66,339.50 C344.19,348.21 326.24,367.00 324.39,367.00 C323.68,367.00 323.09,364.59 322.87,360.75 ZM 203.67 126.25 C202.99,125.12 202.58,112.87 202.81,100.50 L 203.02 89.50 L 209.91 85.25 C213.70,82.91 217.11,81.00 217.50,81.00 C217.89,81.00 224.61,77.40 232.44,73.00 C240.27,68.60 247.21,65.00 247.87,65.00 C248.76,65.00 249.04,69.69 248.96,83.32 C248.90,93.39 248.54,102.08 248.17,102.63 C247.80,103.17 244.12,105.44 240.00,107.67 C235.88,109.89 226.36,115.15 218.86,119.36 C204.57,127.37 204.39,127.45 203.67,126.25 Z" fill="rgb(254,254,254)"/>
</g>
</svg>